<!DOCTYPE svg PUBLIC "-//W3C//DTD SVG 20010904//EN" "http://www.w3.org/TR/2001/REC-SVG-20010904/DTD/svg10.dtd">
<svg version="1.0" xmlns="http://www.w3.org/2000/svg" width="625px" height="650px" viewBox="0 0 6250 6500" preserveAspectRatio="xMidYMid meet">
<g id="layer101" fill="#0f4a7c" stroke="none">
<path d="M3635 5023 c-247 -145 -459 -269 -471 -275 -18 -8 -88 29 -485 257 -255 147 -469 268 -475 268 -6 0 -150 -82 -319 -182 -169 -101 -315 -184 -324 -186 -21 -3 -25 -117 -16 -411 l7 -211 249 143 c136 79 252 144 258 144 5 0 126 -67 268 -148 142 -82 266 -153 276 -159 15 -8 -28 -35 -250 -160 l-268 -150 -5 -311 -5 -312 -265 155 -265 155 -5 314 -5 314 -260 -157 -260 -158 -3 -384 -2 -385 470 -284 470 -283 0 -552 0 -552 318 -188 c174 -104 324 -193 333 -198 11 -7 81 30 277 147 144 86 265 157 270 158 5 2 122 -64 262 -146 139 -82 260 -150 269 -153 9 -2 158 80 341 190 l325 193 3 555 3 554 467 281 467 280 3 386 2 385 -259 157 c-142 86 -261 156 -265 156 -3 0 -7 -140 -8 -312 l-3 -312 -277 -162 -278 -162 -2 315 -3 315 -263 148 c-144 81 -264 149 -267 151 -2 2 122 80 275 173 l279 168 266 -152 c146 -84 268 -150 271 -148 2 3 1 144 -3 314 l-8 309 -325 187 c-179 103 -327 187 -330 187 -3 0 -207 -120 -455 -266z m45 -2962 l0 -300 -247 -147 c-137 -81 -255 -152 -264 -157 -12 -8 -77 26 -282 148 l-267 157 0 295 c0 162 4 293 8 291 5 -1 122 -63 261 -136 l251 -134 263 140 c144 77 265 141 270 141 4 1 7 -134 7 -298z"/>
</g>
<g id="layer102" fill="#238acb" stroke="none">
<path d="M3635 5023 c-247 -145 -459 -269 -471 -275 -18 -8 -88 29 -485 257 -255 147 -469 268 -475 268 -12 0 -633 -365 -634 -373 0 -3 78 -50 173 -105 331 -191 339 -196 328 -209 -8 -9 9 -23 67 -56 42 -24 168 -97 280 -161 l202 -116 -255 -143 c-140 -78 -261 -148 -269 -154 -12 -9 91 -74 514 -326 l529 -315 3 -617 3 -617 264 140 c145 77 265 139 266 137 2 -2 6 -279 10 -615 4 -337 9 -613 10 -613 1 0 148 87 326 193 l324 193 3 555 3 554 466 280 c256 154 467 284 469 290 2 6 3 177 2 381 l-3 372 -255 -149 c-139 -82 -257 -149 -261 -149 -4 0 -133 -74 -288 -164 l-281 -164 -2 315 -3 315 -268 150 c-147 83 -266 152 -265 153 2 2 125 76 273 165 149 90 279 170 290 180 11 9 124 79 250 155 127 76 238 144 248 151 16 10 -24 36 -306 198 -178 102 -326 186 -328 185 -2 0 -206 -120 -454 -266z"/>
<path d="M1010 3562 l0 -378 470 -284 470 -283 0 -552 0 -552 328 -195 327 -195 6 361 c3 199 7 623 8 942 l1 582 -267 157 c-148 86 -374 220 -503 296 -129 77 -264 154 -300 173 -36 18 -170 94 -298 169 -128 75 -235 137 -237 137 -3 0 -5 -170 -5 -378z"/>
<path d="M1012 2389 l3 -313 263 -158 c145 -87 265 -158 268 -158 6 0 5 455 -2 546 l-7 81 -221 131 c-121 73 -240 143 -264 158 l-42 25 2 -312z"/>
<path d="M5030 2542 l-265 -157 -6 -310 c-4 -171 -5 -312 -3 -314 2 -2 125 69 274 158 l270 162 0 309 c0 171 -1 310 -2 310 -2 0 -122 -71 -268 -158z"/>
</g>
<g id="layer103" fill="#51bde8" stroke="none">
<path d="M2390 4124 c-124 -69 -245 -137 -269 -151 l-43 -25 518 -310 c286 -171 527 -313 536 -315 21 -6 1072 618 1060 628 -9 9 -484 276 -516 290 -20 10 -53 -7 -274 -140 l-251 -152 -261 151 c-144 82 -264 150 -268 150 -4 0 -108 -57 -232 -126z"/>
</g>


</svg>